<svg width="20" height="21" viewBox="0 0 20 21" fill="none" xmlns="http://www.w3.org/2000/svg">
<path d="M4.36335 0.323242C3.96156 0.323242 3.56578 0.467326 3.23595 0.73148L3.18798 0.755494L3.16399 0.779508L0.765271 3.25295L0.789258 3.27696C0.0486531 3.96136 -0.179225 4.98495 0.141604 5.87047C0.144602 5.87647 0.138605 5.88848 0.141604 5.89448C0.792256 7.75857 2.45637 11.3577 5.70663 14.6116C8.96889 17.8775 12.6119 19.4774 14.414 20.1828H14.438C15.3705 20.495 16.3809 20.2728 17.1005 19.6545L19.5233 17.2291C20.1589 16.5927 20.1589 15.4881 19.5233 14.8517L16.4049 11.7299L16.3809 11.6818C15.7453 11.0455 14.6179 11.0455 13.9822 11.6818L12.447 13.2187C11.8923 12.9516 10.57 12.2672 9.30471 11.0575C8.04838 9.85679 7.40672 8.47598 7.16985 7.93567L8.70503 6.39878C9.34969 5.7534 9.36168 4.67878 8.68104 4.04541L8.70503 4.02139L8.63307 3.94935L5.56271 0.779508L5.53872 0.755494L5.49075 0.73148C5.16092 0.467326 4.76514 0.323242 4.36335 0.323242ZM4.36335 1.86014C4.42032 1.86014 4.47729 1.88715 4.53126 1.93218L7.60162 5.07801L7.67358 5.15005C7.66758 5.14405 7.71856 5.22509 7.62561 5.31815L5.70663 7.23926L5.34682 7.57546L5.51473 8.05574C5.51473 8.05574 6.39626 10.4181 8.24927 12.1861L8.41718 12.3302C10.2012 13.9602 12.3031 14.8517 12.3031 14.8517L12.7829 15.0678L15.0616 12.7865C15.1936 12.6544 15.1696 12.6544 15.3015 12.7865L18.4438 15.9323C18.5758 16.0644 18.5758 16.0164 18.4438 16.1484L16.0931 18.5018C15.7393 18.805 15.3645 18.868 14.9177 18.7179C13.1786 18.0335 9.79945 16.5477 6.78606 13.5309C3.74868 10.4902 2.16252 7.04115 1.58083 5.36617C1.4639 5.05399 1.54785 4.59172 1.82071 4.35759L1.86868 4.30956L4.19544 1.93218C4.24941 1.88715 4.30638 1.86014 4.36335 1.86014Z" fill="#29282D"/>
</svg>
