<svg width="34" height="32" viewBox="0 0 34 32" fill="none" xmlns="http://www.w3.org/2000/svg">
<path d="M15.6813 1.17759C16.0551 0.0272644 17.6825 0.0272651 18.0563 1.17759L21.0736 10.4641C21.2408 10.9785 21.7202 11.3268 22.2611 11.3268H32.0255C33.235 11.3268 33.7379 12.8746 32.7594 13.5855L24.8598 19.3249C24.4222 19.6429 24.2391 20.2064 24.4063 20.7209L27.4236 30.0074C27.7974 31.1577 26.4808 32.1143 25.5023 31.4033L17.6027 25.664C17.1651 25.346 16.5725 25.346 16.1349 25.664L8.23532 31.4033C7.25679 32.1143 5.9402 31.1577 6.31396 30.0074L9.33133 20.7209C9.49848 20.2064 9.31537 19.6429 8.87776 19.3249L0.978177 13.5855C-0.000347853 12.8746 0.502547 11.3268 1.71207 11.3268H11.4765C12.0174 11.3268 12.4968 10.9785 12.664 10.4641L15.6813 1.17759Z" fill="#DBBE83"/>
</svg>
