<svg width="33" height="32" viewBox="0 0 33 32" fill="none" xmlns="http://www.w3.org/2000/svg">
<rect x="5" y="7" width="23" height="19" fill="white"/>
<path d="M22.7723 9.57769C22.7786 9.57769 22.7871 9.57769 22.7956 9.57769C23.0177 9.57769 23.2238 9.64675 23.3927 9.76574L23.3895 9.76361C23.5128 9.87092 23.5956 10.0218 23.6158 10.1918V10.195C23.6371 10.3246 23.6488 10.4733 23.6488 10.6252C23.6488 10.6943 23.6466 10.7623 23.6413 10.8303V10.8207C23.4023 13.3376 22.3654 19.4412 21.8384 22.2587C21.6153 23.4518 21.1765 23.8513 20.7515 23.8895C19.8283 23.9756 19.1271 23.2797 18.2326 22.6932C16.8323 21.7742 16.0408 21.2027 14.682 20.307C13.1106 19.2733 14.1295 18.7028 15.0241 17.7742C15.2588 17.5299 19.329 13.8274 19.4086 13.4916C19.4129 13.4714 19.415 13.4491 19.415 13.4258C19.415 13.3429 19.3842 13.2675 19.3343 13.2101C19.279 13.174 19.21 13.1538 19.1377 13.1538C19.0899 13.1538 19.0442 13.1633 19.0017 13.1793L19.0039 13.1782C18.8636 13.2101 16.6269 14.6883 12.2936 17.6127C11.8209 17.9857 11.2238 18.2215 10.5736 18.2491H10.5672C9.6461 18.1376 8.80997 17.9325 8.01635 17.6404L8.09497 17.6659C7.09842 17.3408 6.30692 17.1697 6.37492 16.6194C6.41104 16.3332 6.80555 16.0404 7.55845 15.7408C12.1963 13.7201 15.2889 12.3881 16.8365 11.745C18.5438 10.8388 20.5231 10.093 22.6044 9.60956L22.7712 9.57663L22.7723 9.57769ZM16.1938 0C7.37359 0.0212483 0.230957 7.17663 0.230957 16C0.230957 24.8361 7.39377 32 16.231 32C25.0681 32 32.231 24.8372 32.231 16C32.231 7.17663 25.0883 0.0212483 16.2703 0H16.2681C16.2434 0 16.2186 0 16.1938 0Z" fill="#DBBE83"/>
</svg>
