<svg width="32" height="32" viewBox="0 0 32 32" fill="none" xmlns="http://www.w3.org/2000/svg">
<path d="M15.9999 0.00463867C18.1497 0.00463867 20.2351 0.421322 22.2001 1.24683C24.1179 2.05093 25.8381 3.20806 27.3173 4.68726C28.792 6.16206 29.9536 7.88582 30.7577 9.80347C31.5918 11.79 32.0084 13.8973 31.9999 16.073C31.9741 20.3558 30.2927 24.3685 27.2655 27.3699C24.2514 30.3538 20.2526 31.9958 15.996 31.9958H15.9227C13.3299 31.983 10.754 31.3383 8.47938 30.1257L8.11805 29.9324H2.06337V23.8777L1.87001 23.5164C0.657538 21.2417 0.0127878 18.6658 -0.000111431 16.073C-0.0172247 11.786 1.62127 7.76164 4.62684 4.73022C7.62816 1.69877 11.6397 0.0218847 15.9266 0.00463867H15.9999Z" fill="#DBBE83"/>
<path d="M23.7475 19.0831C23.3282 18.8678 21.2396 17.8447 20.8511 17.7063C20.4626 17.5601 20.178 17.4909 19.8972 17.9217C19.6126 18.3486 18.8048 19.2985 18.5509 19.5869C18.3048 19.8715 18.0547 19.9061 17.6355 19.6946C15.143 18.4485 13.5083 17.4717 11.8659 14.6527C11.4312 13.9027 12.3005 13.9565 13.1121 12.3374C13.2506 12.0528 13.1813 11.8105 13.0736 11.5952C12.9659 11.3798 12.1197 9.29532 11.7658 8.44538C11.4235 7.61851 11.0696 7.73389 10.8119 7.71851C10.5658 7.70313 10.285 7.70312 10.0003 7.70312C9.7157 7.70312 9.25797 7.81081 8.86949 8.23001C8.481 8.65691 7.38477 9.68376 7.38477 11.7682C7.38477 13.8527 8.9041 15.8718 9.11181 16.1564C9.32721 16.441 12.1005 20.7176 16.3585 22.5598C19.051 23.7213 20.1049 23.8213 21.4511 23.6213C22.2704 23.4982 23.959 22.5983 24.309 21.6022C24.6591 20.6099 24.6591 19.76 24.5552 19.5831C24.4514 19.3946 24.1667 19.287 23.7475 19.0831Z" fill="white"/>
</svg>
